<?xml version="1.0" encoding="UTF-8" standalone="no"?>
<svg width="42px" height="42px" viewBox="0 0 42 42" version="1.1" xmlns="http://www.w3.org/2000/svg" xmlns:xlink="http://www.w3.org/1999/xlink" xmlns:sketch="http://www.bohemiancoding.com/sketch/ns">
    <!-- Generator: Sketch 3.2.2 (9983) - http://www.bohemiancoding.com/sketch -->
    <title>Imported Layers</title>
    <desc>Created with Sketch.</desc>
    <defs></defs>
    <g id="Page-1" stroke="none" stroke-width="1" fill="none" fill-rule="evenodd" sketch:type="MSPage">
        <path d="M20.99989,0 C32.59796,0.00015 42.00004,9.40213 42.00004,21.0001 C42.00004,32.598305 32.59796,42.00029 20.99998,42.00029 C9.402001,42.00029 0,32.598305 0,21.0001 C0,9.40213 9.402001,0.00015 20.99998,0.00015 L20.99989,0 L20.99989,0 Z M24.77519,10.1447 C22.99337,10.18457 23.68172,9.89631 22.59059,10.6343 L13.89869,19.3262 L13.55199,19.5521 C12.98143,20.42796 13.12006,19.94605 13.14369,21 C13.12006,22.05412 12.98138,21.57219 13.55199,22.448 L13.89779,22.6732 C16.79536,25.57084 19.69299,28.4684 22.59059,31.366 C23.39206,32.167475 24.66303,32.196016 25.42929,31.4295 C26.19569,30.66314 26.16724,29.3923 25.36579,28.5906 C22.83564,26.06039 20.30538,23.53029 17.77519,21.0001 C20.30533,18.46983 22.83559,15.9397 25.36579,13.4095 C26.16724,12.60814 26.19569,11.3373 25.42932,10.57086 L24.77519,10.1447 L24.77519,10.1447 Z" id="Imported-Layers" fill-opacity="1" fill="#000000" sketch:type="MSShapeGroup"></path>
    </g>
</svg>