<?xml version="1.0" encoding="UTF-8" standalone="no"?>
<svg width="28px" height="23px" viewBox="0 0 28 23" version="1.1" xmlns="http://www.w3.org/2000/svg" xmlns:xlink="http://www.w3.org/1999/xlink" xmlns:sketch="http://www.bohemiancoding.com/sketch/ns">
    <!-- Generator: Sketch 3.2.2 (9983) - http://www.bohemiancoding.com/sketch -->
    <title>Imported Layers</title>
    <desc>Created with Sketch.</desc>
    <defs></defs>
    <g id="Page-1" stroke="none" stroke-width="1" fill="none" fill-rule="evenodd" sketch:type="MSPage">
        <path d="M10.1384,18.985795 C11.32287,18.985804 12.28309,19.878958 12.28309,20.980761 C12.28309,22.0828098 11.32287,22.97621 10.13843,22.97621 C8.953906,22.97621 7.99377,22.0828098 7.99377,20.980761 C7.99377,19.878958 8.953906,18.985804 10.13843,18.985804 L10.1384,18.985795 Z M10.1384,20.320095 C9.746064,20.320122 9.427966,20.615872 9.4279,20.980695 C9.427966,21.345896 9.746064,21.641892 10.1384,21.641795 C10.53079,21.641892 10.84889,21.345896 10.8488,20.980695 C10.84889,20.615872 10.53079,20.320122 10.1384,20.320095 L10.1384,20.320095 Z M20.8618,18.985795 C22.04633,18.985804 23.00646,19.878958 23.00646,20.980761 C23.00646,22.0828098 22.04633,22.97621 20.86181,22.97621 C19.67737,22.97621 18.71715,22.0828098 18.71715,20.980761 C18.71715,19.878958 19.67737,18.985804 20.86181,18.985804 L20.8618,18.985795 Z M20.8618,20.320095 C20.46944,20.320122 20.15134,20.615872 20.1513,20.980695 C20.15134,21.345896 20.46944,21.641892 20.8618,21.641795 C21.25417,21.641892 21.57227,21.345896 21.5722,20.980695 C21.57227,20.615872 21.25417,20.320122 20.8618,20.320095 L20.8618,20.320095 Z M4.9001,0 C5.236002,1.35999 5.572305,2.71988 5.9081,4.0799 L28.0001,4.0799 C28.00015,4.07997 24.50016,16.319382 24.50016,16.319382 L24.1499,16.319295 C23.87305,16.857536 23.9897,16.630913 23.8001,16.999195 L7.7001,16.999195 C6.411944,11.78613 5.12428,6.57293 3.836,1.3599 L0.7001,1.3599 L0.4276,1.3064 C-0.009558196,0.88191 0.09037051,1.11413 0,0.68 C9.61853e-05,0.30437 0.3135212,0 0.7001289,0 L4.9001,0 L4.9001,0 Z M26.2112,5.4396 L6.2441,5.4396 C8.035981,12.6927 7.195967,9.29281 8.7641,15.639295 L23.2945,15.639295 C24.02723,13.077072 24.75992,10.51483 25.4926,7.9526 L26.2112,5.4396 L26.2112,5.4396 Z" id="Imported-Layers" fill-opacity="0.251" fill="#000000" sketch:type="MSShapeGroup"></path>
    </g>
</svg>