<?xml version="1.0" encoding="UTF-8" standalone="no"?>
<svg width="20px" height="20px" viewBox="0 0 20 20" version="1.1" xmlns="http://www.w3.org/2000/svg" xmlns:xlink="http://www.w3.org/1999/xlink" xmlns:sketch="http://www.bohemiancoding.com/sketch/ns">
    <!-- Generator: Sketch 3.2.2 (9983) - http://www.bohemiancoding.com/sketch -->
    <title>Fill 1</title>
    <desc>Created with Sketch.</desc>
    <defs></defs>
    <g id="Page-1" stroke="none" stroke-width="1" fill="none" fill-rule="evenodd" sketch:type="MSPage">
        <g id="Imported-Layers" sketch:type="MSLayerGroup" fill-opacity="0.251" fill="#000000">
            <path d="M8.814352,0.54671 L10.06025,0.55061 C11.82155,0.92007 13.12678,1.70122 14.41995,2.87021 C17.37373,5.89564 17.81184,11.064123 14.88775,14.298614 L14.91775,14.318614 C14.91775,14.318629 19.39758,18.798425 19.39758,18.798425 C19.67245,19.0732603 19.67245,19.5188532 19.39758,19.7936888 C19.12262,20.0687704 18.67694,20.0687704 18.40206,19.7936888 L13.92224,15.314139 L13.90225,15.284114 C10.4723,18.303443 5.707752,17.739388 2.473952,14.816114 C-0.824845,11.517619 -0.824845,6.16903 2.473962,2.87026 C4.549039,0.84957 6.058775,0.64544 8.814352,0.54671 L8.814352,0.54671 Z M8.784252,1.86941 C6.669576,1.72648 5.077683,2.61805 3.469452,3.86571 C0.7205008,6.61462 0.7205008,11.07178 3.469452,13.820614 C6.218457,16.569722 10.6755,16.569722 13.42445,13.820614 C16.17354,11.07178 16.17354,6.61462 13.42445,3.86571 C11.61515,2.38787 12.76027,3.14313 9.791352,1.93281 L8.784252,1.86941 L8.784252,1.86941 Z" id="Fill-1" sketch:type="MSShapeGroup"></path>
        </g>
    </g>
</svg>