<?xml version="1.0" encoding="UTF-8" standalone="no"?>
<svg width="70px" height="70px" viewBox="0 0 70 70" version="1.1" xmlns="http://www.w3.org/2000/svg" xmlns:xlink="http://www.w3.org/1999/xlink" xmlns:sketch="http://www.bohemiancoding.com/sketch/ns">
    <!-- Generator: Sketch 3.2.2 (9983) - http://www.bohemiancoding.com/sketch -->
    <title>Advantages</title>
    <desc>Created with Sketch.</desc>
    <defs>
        <linearGradient x1="0%" y1="50%" x2="100%" y2="50%" id="linearGradient-1">
            <stop stop-color="#EA2027" offset="0%"></stop>
            <stop stop-color="#FF5552" offset="100%"></stop>
        </linearGradient>
    </defs>
    <g id="Page-1" stroke="none" stroke-width="1" fill="none" fill-rule="evenodd" sketch:type="MSPage">
        <g id="Advantages" sketch:type="MSLayerGroup">
            <g id="Group" sketch:type="MSShapeGroup">
                <g id="Ellipse_2" fill="url(#linearGradient-1)">
                    <circle id="Oval-1" cx="35" cy="35" r="35"></circle>
                </g>
                <path d="M32.342,20.812 C32.35,20.812 32.359,20.815 32.369,20.815 L42.132,20.815 C42.178,20.815 42.222,20.823 42.267,20.828 C44.17,20.825 51.359,21.813 58.632,35.789 C58.735,35.988 58.772,36.204 58.751,36.412 C58.768,36.489 58.778,36.569 58.778,36.65 L58.778,41.644 C58.778,43.673 57.127,45.324 55.098,45.324 L53.632,45.324 C53.129,47.533 51.153,49.189 48.794,49.189 C46.434,49.189 44.458,47.533 43.957,45.324 L30.745,45.324 C30.243,47.533 28.267,49.189 25.908,49.189 C23.549,49.189 21.573,47.533 21.07,45.324 L19.257,45.324 C17.228,45.324 15.577,43.673 15.577,41.644 L15.577,39.729 L11.199,39.729 C10.584,39.729 10.083,39.228 10.083,38.609 C10.083,37.99 10.584,37.489 11.199,37.489 L19.687,37.489 C20.305,37.489 20.807,37.99 20.807,38.609 C20.807,39.228 20.305,39.729 19.687,39.729 L17.816,39.729 C17.817,39.729 17.817,41.644 17.816,41.644 C17.817,42.438 18.463,43.084 19.257,43.084 L21.081,43.084 C21.599,40.896 23.564,39.26 25.908,39.26 C28.252,39.26 30.217,40.896 30.734,43.084 L43.967,43.084 C44.484,40.896 46.449,39.26 48.794,39.26 C51.138,39.26 53.103,40.896 53.62,43.084 L55.098,43.084 C55.892,43.084 56.538,42.438 56.538,41.644 L56.538,36.65 C56.538,36.643 56.539,36.636 56.54,36.629 C56.164,35.914 55.792,35.239 55.419,34.599 L45.508,34.599 C42.463,34.599 41.358,32.028 41.358,30.3 L41.358,26.308 C41.358,25.689 41.859,25.188 42.478,25.188 C43.097,25.188 43.598,25.689 43.598,26.308 L43.598,30.3 C43.605,30.777 43.765,32.358 45.508,32.358 L54.037,32.358 C47.63,22.627 42.168,23.076 42.108,23.073 C42.05,23.071 41.993,23.063 41.934,23.055 L21.95,23.055 L21.95,23.052 L16.346,23.052 C15.728,23.052 15.229,22.55 15.229,21.932 C15.229,21.313 15.728,20.812 16.346,20.812 L32.342,20.812 L32.342,20.812 Z M25.908,41.5 C24.814,41.5 23.875,42.152 23.443,43.084 C23.28,43.433 23.184,43.817 23.184,44.225 C23.184,44.617 23.27,44.988 23.42,45.324 C23.844,46.279 24.798,46.949 25.908,46.948 C27.019,46.949 27.973,46.279 28.396,45.324 C28.545,44.988 28.632,44.617 28.632,44.225 C28.632,43.817 28.535,43.433 28.373,43.084 C27.94,42.152 27.002,41.5 25.908,41.5 L25.908,41.5 Z M48.794,41.5 C47.7,41.5 46.762,42.152 46.328,43.084 C46.167,43.433 46.069,43.817 46.069,44.225 C46.069,44.617 46.157,44.988 46.305,45.324 C46.729,46.279 47.683,46.949 48.794,46.948 C49.904,46.949 50.859,46.279 51.283,45.324 C51.432,44.988 51.518,44.617 51.518,44.225 C51.518,43.817 51.422,43.433 51.259,43.084 C50.827,42.152 49.888,41.5 48.794,41.5 L48.794,41.5 Z M23.952,33.329 C24.57,33.329 25.072,33.831 25.072,34.449 C25.072,35.068 24.57,35.569 23.952,35.569 L3.342,35.569 C2.723,35.569 2.222,35.068 2.222,34.449 C2.222,33.831 2.723,33.329 3.342,33.329 L23.952,33.329 L23.952,33.329 Z M28.218,29.17 C28.837,29.17 29.338,29.671 29.338,30.29 C29.338,30.908 28.837,31.41 28.218,31.41 L12.033,31.41 C11.418,31.41 10.919,30.908 10.919,30.29 C10.919,29.671 11.418,29.17 12.033,29.17 L28.218,29.17 L28.218,29.17 Z M23.952,25.01 C24.57,25.01 25.072,25.512 25.072,26.13 C25.072,26.749 24.57,27.25 23.952,27.25 L7.141,27.25 C6.522,27.25 6.021,26.749 6.021,26.13 C6.021,25.512 6.522,25.01 7.141,25.01 L23.952,25.01 L23.952,25.01 Z" id="Shape_9" fill="#FFFFFF"></path>
            </g>
        </g>
    </g>
</svg>