<?xml version="1.0" encoding="UTF-8" standalone="no"?>
<svg width="70px" height="70px" viewBox="0 0 70 70" version="1.1" xmlns="http://www.w3.org/2000/svg" xmlns:xlink="http://www.w3.org/1999/xlink" xmlns:sketch="http://www.bohemiancoding.com/sketch/ns">
    <!-- Generator: Sketch 3.2.2 (9983) - http://www.bohemiancoding.com/sketch -->
    <title>Advantages</title>
    <desc>Created with Sketch.</desc>
    <defs>
        <linearGradient x1="0%" y1="50%" x2="100%" y2="50%" id="linearGradient-1">
            <stop stop-color="#EA2027" offset="0%"></stop>
            <stop stop-color="#FF5552" offset="100%"></stop>
        </linearGradient>
    </defs>
    <g id="Page-1" stroke="none" stroke-width="1" fill="none" fill-rule="evenodd" sketch:type="MSPage">
        <g id="Advantages" sketch:type="MSLayerGroup">
            <g id="Group" sketch:type="MSShapeGroup">
                <g id="Ellipse_2" fill="url(#linearGradient-1)">
                    <circle id="Oval-1" cx="35" cy="35" r="35"></circle>
                </g>
                <path d="M25.7319034,12.002 C27.9859034,12.002 31.3459034,13.112 34.8079034,14.951 L32.9909034,16.768 C30.1459034,15.332 27.4519034,14.453 25.7319034,14.453 C25.0349034,14.453 24.7649034,14.609 24.7309034,14.651 C24.4639034,15.301 26.4479034,18.315 31.3639034,21.57 L36.1279034,16.806 C36.3629034,16.571 36.6709034,16.424 37.0149034,16.447 L48.2249034,16.637 C48.5429034,16.642 48.8459034,16.771 49.0699034,16.996 C49.0709034,16.996 56.2269034,24.153 56.2269034,24.153 C56.4519034,24.377 56.5809034,24.68 56.5859034,24.998 L56.7759034,36.208 C56.7819034,36.54 56.6519034,36.86 56.4179034,37.095 L33.8709034,59.641 C33.6319034,59.88 33.3179034,60 33.0049034,60 C32.6909034,60 32.3779034,59.88 32.1389034,59.641 L13.5819034,41.085 C13.3519034,40.855 13.2229034,40.543 13.2239034,40.219 C13.2229034,39.893 13.3519034,39.581 13.5819034,39.352 L29.5979034,23.336 C27.5239034,21.922 25.7299034,20.404 24.4359034,18.95 C21.8949034,16.094 22.0539034,14.347 22.6339034,13.383 C23.0149034,12.753 23.8599034,12.002 25.7319034,12.002 L25.7319034,12.002 Z M37.4939034,18.906 L33.5109034,22.888 C36.5309034,24.612 39.5469034,25.783 41.6269034,26.037 C41.8309034,25.277 42.2259034,24.578 42.7969034,24.007 C43.6539034,23.15 44.7939034,22.678 46.0059034,22.678 C47.2179034,22.678 48.3579034,23.15 49.2159034,24.007 C50.9859034,25.777 50.9849034,28.657 49.2159034,30.427 C48.3589034,31.284 47.2189034,31.756 46.0069034,31.756 C44.7939034,31.756 43.6539034,31.284 42.7969034,30.427 C42.2499034,29.88 41.8619034,29.217 41.6509034,28.494 C39.0489034,28.251 35.3609034,26.845 31.7169034,24.682 L16.1809034,40.219 L33.0049034,57.043 L54.3179034,35.73 L54.1449034,25.535 L47.6889034,19.078 L37.4939034,18.906 L37.4939034,18.906 Z M33.1749034,42.947 C34.1369034,42.947 35.0399034,43.321 35.7199034,44 C37.1219034,45.402 37.1229034,47.685 35.7219034,49.089 C35.0429034,49.769 34.1389034,50.143 33.1779034,50.143 C32.2159034,50.143 31.3119034,49.768 30.6319034,49.089 C29.2299034,47.686 29.2299034,45.403 30.6329034,44 C31.3119034,43.321 32.2149034,42.947 33.1749034,42.947 L33.1749034,42.947 Z M33.1749034,45.047 C32.7759034,45.047 32.4009034,45.202 32.1189034,45.484 C31.5339034,46.069 31.5329034,47.02 32.1169034,47.604 C32.6829034,48.17 33.6709034,48.17 34.2359034,47.605 C34.8189034,47.02 34.8189034,46.07 34.2349034,45.486 C33.9519034,45.203 33.5759034,45.047 33.1749034,45.047 L33.1749034,45.047 Z M42.1239034,37.15 C42.6929034,37.046 43.2419034,37.422 43.3459034,37.993 C43.4509034,38.563 43.0739034,39.111 42.5039034,39.215 L24.5349034,42.524 C24.4699034,42.537 24.4069034,42.542 24.3429034,42.542 C23.8469034,42.542 23.4049034,42.188 23.3119034,41.682 C23.2069034,41.111 23.5839034,40.565 24.1549034,40.459 L42.1239034,37.15 L42.1239034,37.15 Z M33.4819034,29.531 C34.4429034,29.531 35.3459034,29.905 36.0249034,30.584 C36.7039034,31.263 37.0789034,32.166 37.0789034,33.128 C37.0789034,34.09 36.7049034,34.993 36.0259034,35.673 C35.3449034,36.353 34.4419034,36.727 33.4809034,36.727 C32.5199034,36.727 31.6159034,36.353 30.9359034,35.674 C29.5349034,34.27 29.5349034,31.987 30.9369034,30.585 C31.6169034,29.905 32.5209034,29.531 33.4819034,29.531 L33.4819034,29.531 Z M33.4819034,31.631 C33.0809034,31.631 32.7049034,31.787 32.4219034,32.07 C31.8379034,32.654 31.8379034,33.605 32.4209034,34.189 C32.9859034,34.752 33.9739034,34.754 34.5409034,34.188 C34.8229034,33.905 34.9789034,33.529 34.9789034,33.129 C34.9789034,32.728 34.8229034,32.352 34.5399034,32.069 C34.2579034,31.787 33.8819034,31.631 33.4819034,31.631 L33.4819034,31.631 Z M46.0059034,25.128 C45.9299034,25.128 45.8569034,25.142 45.7829034,25.15 C45.9389034,25.881 45.8809034,26.565 45.5199034,27.164 C45.2909034,27.544 44.8879034,27.966 44.1969034,28.243 C44.2879034,28.405 44.3939034,28.559 44.5289034,28.694 C45.3189034,29.482 46.6949034,29.484 47.4839034,28.694 C48.2979034,27.88 48.2969034,26.554 47.4829034,25.74 C47.0889034,25.346 46.5639034,25.128 46.0059034,25.128 L46.0059034,25.128 Z" id="Shape_11" fill="#FFFFFF"></path>
            </g>
        </g>
    </g>
</svg>