<?xml version="1.0" encoding="UTF-8" standalone="no"?>
<svg width="70px" height="70px" viewBox="0 0 70 70" version="1.1" xmlns="http://www.w3.org/2000/svg" xmlns:xlink="http://www.w3.org/1999/xlink" xmlns:sketch="http://www.bohemiancoding.com/sketch/ns">
    <!-- Generator: Sketch 3.2.2 (9983) - http://www.bohemiancoding.com/sketch -->
    <title>Advantages</title>
    <desc>Created with Sketch.</desc>
    <defs>
        <linearGradient x1="0%" y1="50%" x2="100%" y2="50%" id="linearGradient-1">
            <stop stop-color="#EA2027" offset="0%"></stop>
            <stop stop-color="#FF5552" offset="100%"></stop>
        </linearGradient>
    </defs>
    <g id="Page-1" stroke="none" stroke-width="1" fill="none" fill-rule="evenodd" sketch:type="MSPage">
        <g id="Advantages" sketch:type="MSLayerGroup">
            <g id="Group" sketch:type="MSShapeGroup">
                <g id="Ellipse_2" fill="url(#linearGradient-1)">
                    <circle id="Oval-1" cx="35" cy="35" r="35"></circle>
                </g>
                <path d="M37.6618833,22.592 L39.1468833,24.077 C39.1468833,24.077 25.2388833,37.986 25.2378833,37.986 C25.2388833,37.986 27.4738833,40.239 27.4738833,40.239 L41.3918833,26.321 L42.8768833,27.806 C42.8768833,27.806 28.9528833,41.73 28.9528833,41.729 C28.9528833,41.73 30.9888833,43.78 30.9888833,43.78 L44.8188833,29.951 L46.3028833,31.435 L30.9808833,46.757 C30.8658833,46.873 30.7258833,46.959 30.5708833,47.011 L19.3818833,50.74 C19.2728833,50.776 19.1608833,50.794 19.0498833,50.794 C18.7688833,50.794 18.4948833,50.681 18.2938833,50.473 C18.0128833,50.181 17.9248833,49.754 18.0668833,49.375 L22.3008833,38.086 C22.3538833,37.946 22.4358833,37.818 22.5428833,37.712 L37.6618833,22.592 L37.6618833,22.592 Z M23.9498833,39.67 L21.7278833,45.595 L23.3558833,47.202 L29.4198833,45.181 L23.9498833,39.67 L23.9498833,39.67 Z M44.2358833,17 C44.8508833,17 45.4658833,17.233 45.9328833,17.7 L51.3068833,23.074 C52.2408833,24.007 52.2408833,25.534 51.3068833,26.468 L49.6308833,28.143 L49.6318833,28.143 L48.1468833,29.628 L39.3748833,20.855 L40.8598833,19.37 L40.8648833,19.375 L42.5388833,17.701 C43.0048833,17.234 43.6208833,17 44.2358833,17 L44.2358833,17 Z M44.2368833,19.1 C44.1778833,19.1 44.0938833,19.115 44.0238833,19.186 L42.3498833,20.86 L48.1468833,26.658 C48.1468833,26.658 49.8218833,24.983 49.8218833,24.982 C49.8918833,24.913 49.9078833,24.829 49.9078833,24.771 C49.9078833,24.713 49.8918833,24.629 49.8218833,24.559 L44.4478833,19.185 C44.3778833,19.115 44.2938833,19.1 44.2368833,19.1 L44.2368833,19.1 Z" id="Shape_6" fill="#FFFFFF"></path>
            </g>
        </g>
    </g>
</svg>