<?xml version="1.0" encoding="UTF-8" standalone="no"?>
<svg width="70px" height="70px" viewBox="0 0 70 70" version="1.1" xmlns="http://www.w3.org/2000/svg" xmlns:xlink="http://www.w3.org/1999/xlink" xmlns:sketch="http://www.bohemiancoding.com/sketch/ns">
    <!-- Generator: Sketch 3.2.2 (9983) - http://www.bohemiancoding.com/sketch -->
    <title>123</title>
    <desc>Created with Sketch.</desc>
    <defs>
        <linearGradient x1="0%" y1="50%" x2="100%" y2="50%" id="linearGradient-1">
            <stop stop-color="#EA2027" offset="0%"></stop>
            <stop stop-color="#FF5653" offset="100%"></stop>
        </linearGradient>
    </defs>
    <g id="Page-1" stroke="none" stroke-width="1" fill="none" fill-rule="evenodd" sketch:type="MSPage">
        <g id="123" sketch:type="MSLayerGroup">
            <g id="Page-1" sketch:type="MSShapeGroup">
                <g id="Advantages">
                    <g id="Group">
                        <g id="Ellipse_2" fill="url(#linearGradient-1)">
                            <circle id="Oval-1" cx="35" cy="35" r="35"></circle>
                        </g>
                        <path d="M35.00005,9.90075 C35.67651,9.90081 36.22509,10.44974 36.22505,11.12585 L36.22505,15.23365 C46.19494,15.8318 54.17418,23.80523 54.78285,33.77185 L58.87655,33.77185 C59.55306,33.77189 60.10164,34.32107 60.10155,34.99695 C60.10164,35.67384 59.55306,36.22204 58.87655,36.22195 L54.78285,36.22195 C54.17351,46.19018 46.19461,54.162134 36.22505,54.76045 L36.22505,58.87415 C36.22509,59.5510765 35.67651,60.0992714 35.00005,60.09925 C34.32368,60.0992714 33.7751,59.5510765 33.77505,58.87415 L33.77505,54.75705 C23.82602,54.137529 15.869317,46.17517 15.26095,36.22195 L11.12345,36.22195 C10.4470462,36.22204 9.8984689,35.67384 9.89845,34.99695 C9.8984689,34.32107 10.4470462,33.77189 11.12345,33.77185 L15.26095,33.77185 C15.868649,23.82024 23.82569,15.8564 33.77505,15.23705 L33.77505,11.12585 C33.7751,10.44974 34.32368,9.90081 35.00005,9.90075 L35.00005,9.90075 L35.00005,9.90075 Z M52.32605,36.22195 L47.43015,36.22195 C46.85292,42.13851 42.14328,46.83827 36.22505,47.40535 L36.22505,52.30345 C44.82742,51.711004 51.72252,44.8224 52.32605,36.22195 L52.32605,36.22195 L52.32605,36.22195 Z M22.61495,36.22195 L17.71765,36.22195 C18.320391,44.80813 25.19288,51.687629 33.77505,52.29995 L33.77505,47.40365 C27.87844,46.8176 23.191,42.1235 22.61495,36.22195 L22.61495,36.22195 L22.61495,36.22195 Z M35.02185,24.97835 C29.49713,24.97838 25.00312,29.4722 25.00305,34.99695 C25.00312,40.52173 29.49713,45.01653 35.02185,45.01645 C40.5467,45.01653 45.04205,40.52173 45.04195,34.99695 C45.04205,29.4722 40.5467,24.97838 35.02185,24.97835 L35.02185,24.97835 L35.02185,24.97835 Z M35.02185,29.28445 C38.17473,29.28447 40.73262,31.8414 40.73255,34.99495 C40.73262,38.14835 38.17473,40.70503 35.02185,40.70495 C31.86785,40.70503 29.31113,38.14835 29.31105,34.99495 C29.31113,31.8414 31.86785,29.28447 35.02185,29.28445 L35.02185,29.28445 L35.02185,29.28445 Z M35.02185,31.73405 C33.2241,31.73412 31.7612,33.19663 31.76115,34.99495 C31.7612,36.79213 33.2241,38.25513 35.02185,38.25505 C36.81981,38.25513 38.28263,36.79213 38.28255,34.99495 C38.28263,33.19663 36.81981,31.73412 35.02185,31.73405 L35.02185,31.73405 L35.02185,31.73405 Z M33.77505,17.69385 C25.19254,18.3063 18.319723,25.18679 17.71765,33.77185 L22.61495,33.77185 C23.19066,27.87117 27.87802,23.17707 33.77505,22.59045 L33.77505,17.69385 L33.77505,17.69385 Z M36.22505,17.69035 L36.22505,22.58825 C42.14362,23.15566 46.85325,27.8569 47.43015,33.77185 L52.32605,33.77185 C51.72311,25.17178 44.82776,18.28317 36.22505,17.69035 L36.22505,17.69035 L36.22505,17.69035 Z" id="Imported-Layers" fill="#FFFFFF"></path>
                    </g>
                </g>
            </g>
        </g>
    </g>
</svg>